# xmcd
#
# Track frame offsets:
#	150
#	12153
#	34333
#	53983
#	68569
#	90772
#	110743
#	126427
#	137836
#	153863
#	175814
#	202170
#
# Disc length: 2959 seconds
# Revision: 0
# Processed by: cddbd v1.5.2PL0 Copyright (c) Steve Scherf et al.
# Submitted via: dBpowerAMP V12.0
#
DISCID=a20b8d0c
DTITLE=AJ Lee and Blue Summit - Like I Used To
DYEAR=2019
DGENRE=Bluegrass
TTITLE0=Cold Feet
TTITLE1=Still Love You Still
TTITLE2=Like I Used To
TTITLE3=Crossing the Blue Skies
TTITLE4=To Mine
TTITLE5=Dry River
TTITLE6=Misty Rays
TTITLE7=The Air
TTITLE8=Sweet Wine
TTITLE9=Heart Held Out on a String
TTITLE10=Pirate Song
TTITLE11=Dad
EXTD=
EXTT0=
EXTT1=
EXTT2=
EXTT3=
EXTT4=
EXTT5=
EXTT6=
EXTT7=
EXTT8=
EXTT9=
EXTT10=
EXTT11=
PLAYORDER=
